<svg width="133" height="129" viewBox="0 0 133 129" fill="none" xmlns="http://www.w3.org/2000/svg">
<g clip-path="url(#clip0_105_2804)">
<path d="M103.092 28.6151C103.828 28.3441 104.219 29.5024 104.08 30.1062C104.014 30.3883 103.551 30.725 103.621 30.9127C103.637 30.9537 104.169 31.3223 104.311 31.4668C105.483 32.6633 106.571 33.9488 107.578 35.2876C108.517 36.5357 108.455 37.0701 109.952 37.922C110.236 38.0832 110.565 38.0607 110.869 38.2935C111.197 38.545 111.193 39.0009 111.391 39.294C112.393 40.78 113.023 42.005 113.52 43.772C113.714 44.4627 113.507 45.4684 114.425 45.7602C114.942 45.9242 117.053 45.4398 116.556 46.4835C116.387 46.8394 115.993 47.6023 115.779 47.9232C115.422 48.4559 114.653 48.5762 115.029 49.4107C115.171 49.7254 115.591 49.8621 115.711 50.0682C115.847 50.3002 115.758 50.859 115.854 51.1361C116.113 51.8797 116.718 51.3282 117.187 51.482C117.533 51.5949 117.889 52.094 118.287 52.2414C118.867 52.4577 119.643 51.9991 120.056 52.7141C120.469 53.4291 119.284 53.8593 119.291 54.5504C119.3 55.4352 120.866 55.7495 120.82 56.98C120.773 58.2102 119.997 58.038 119.679 58.6814C119.499 59.0444 119.629 59.521 119.432 59.9724C119.158 60.606 118.241 61.584 117.917 62.3783C117.62 63.1087 117.824 63.3792 117.738 63.9668C117.626 64.7328 117.128 65.6964 117.098 66.4386C117.095 66.5279 117.579 68.0413 117.629 68.1348C117.902 68.6509 118.913 69.4044 119.337 70.0524C120.168 71.3273 120.328 72.5522 119.56 73.8938C119.462 74.0657 119.166 74.2239 119.154 74.3615C119.143 74.4868 119.401 74.763 119.416 75.0132C119.465 75.9544 118.672 76.5963 118.017 77.1191C117.596 77.4555 116.645 77.9004 116.346 78.2138C116.248 78.3182 115.467 79.3303 115.854 79.2702C115.954 79.2552 116.061 79.097 116.277 79.131C116.681 79.1949 117.052 79.5136 116.855 79.9548C116.826 80.0195 116.076 80.9964 115.997 81.0782C115.608 81.4844 114.31 82.1523 113.982 82.7993C113.817 83.1234 114.101 83.9524 113.658 84.6574C113.387 85.0864 112.534 85.2348 112.411 85.3579C112.269 85.5015 112.283 85.9406 112.136 86.1858C111.999 86.413 111.554 86.4538 111.416 86.6807C111.029 87.316 111.977 88.1934 111.041 89.1449C110.866 89.3226 110.58 89.3654 110.391 89.5801C110.181 89.8184 110.105 90.1687 109.87 90.4117C109.712 90.5749 109.397 90.6365 109.293 90.8092C109.085 91.1533 109.255 91.8972 109.114 92.3826C108.778 93.5466 107.664 94.3528 106.608 94.8189C106.162 95.0167 104.392 95.3334 104.34 95.4387C103.914 96.3034 104.762 96.8733 105.014 97.4462C105.132 97.7101 105.32 98.8384 105.267 99.1122C105.131 99.7957 104.352 99.9209 103.958 100.461C103.462 101.141 103.426 101.793 102.372 102.05C102.048 102.128 101.718 102.034 101.394 102.091C100.598 102.234 99.8675 102.815 98.9222 102.287C98.7719 102.204 98.9449 101.78 98.4384 101.638C97.2388 101.302 97.0281 103.462 96.6083 104.209C96.1159 105.085 94.6162 106.138 93.864 106.913C93.3855 107.405 92.1716 109.116 91.6909 109.219C91.3086 109.3 91.0222 109.137 90.6687 109.182C90.3151 109.227 89.2007 109.941 88.6008 110.11C86.4457 110.714 84.6287 110.123 82.5199 109.635C81.7548 110.273 80.3958 110.039 80.4383 111.335C80.4469 111.615 80.8539 111.84 80.7012 112.182C80.6704 112.25 79.4848 112.699 79.3115 112.749C78.8129 112.895 77.8549 113.064 77.3522 112.997C75.9335 112.81 75.8923 112.073 74.2324 112.625C74.0123 112.698 73.7108 112.989 73.5309 112.988C73.1371 112.984 73.2689 112.26 72.3315 112.456C71.8528 112.556 70.8928 113.585 70.3832 113.937C67.8184 115.706 64.9218 116.008 61.9704 114.988C61.2211 114.728 60.4594 114.16 59.7076 113.995C58.4504 113.717 56.3946 113.794 54.968 113.598C47.505 112.573 40.0556 109.341 33.9838 104.914C33.045 104.229 31.0763 102.328 30.2727 101.949C29.6246 101.644 28.3765 101.677 27.6437 101.475C20.9281 99.6117 18.0209 92.5663 17.4368 86.2322C17.3117 84.8797 17.5238 83.1642 17.3658 81.9679C17.2789 81.3111 16.2777 79.296 15.9911 78.4562C14.3148 73.5306 13.1192 66.7636 14.1373 61.6041C14.3559 60.4947 14.9004 59.2631 15.0427 58.1778C15.185 57.0923 14.7992 54.827 14.8195 53.5006C14.8747 49.9163 15.4645 45.3555 17.6863 42.4367C17.9074 42.1469 18.9724 41.1665 18.9992 41.076C19.0645 40.8561 18.8323 40.2822 18.816 39.9783C18.6762 37.3256 20.2034 35.6959 22.6559 35.0429C22.6424 31.5493 25.7373 29.9348 28.834 29.919C28.9583 29.3416 29.2622 28.6766 29.3256 28.1033C29.4768 26.7384 28.9559 26.176 29.9457 24.6474C31.0432 22.9535 32.5204 23.0408 33.8381 22.1979C35.3244 21.2467 36.2745 19.5437 38.4945 19.8579C39.8976 20.0561 40.9965 21.5884 42.0221 21.6321C42.1813 21.6392 43.4787 21.2226 43.6356 21.1301C43.9315 20.9542 44.0771 20.5717 44.4612 20.4792C44.9848 20.3541 46.4224 20.3522 46.8914 20.1795C46.9819 20.1453 48.3491 19.0415 48.3924 18.9553C48.4789 18.7843 48.4197 16.9112 48.4727 16.448C49.3097 9.23533 54.1142 12.5971 57.484 15.7509C58.0586 16.2883 58.8569 17.5115 59.5889 17.5514L64.6094 17.0508C65.9093 13.4458 68.3766 9.45914 71.9226 13.8218C72.1545 14.1074 72.4013 14.7689 72.6788 14.894C73.088 15.0773 74.3254 14.9887 74.9014 15.1087C75.6232 15.2577 76.3263 15.5146 76.9361 15.9345C77.2157 16.1275 77.8765 16.9164 77.9603 16.9402C78.1544 16.9973 78.6108 16.8199 78.9084 16.8464C80.7662 17.0103 79.8109 18.6992 81.2644 19.3439C81.9509 19.6484 84.2906 20.3832 85.0158 20.4862C85.5526 20.5627 85.8574 20.2876 86.2969 20.2772C87.2652 20.2548 88.2795 20.8947 89.1305 21.2104C90.9447 21.8831 92.4976 21.427 94.0758 23.061C94.507 23.5079 94.9125 24.4964 95.2831 24.7671C95.6321 25.0231 96.0064 25.0053 96.2979 25.1824C96.907 25.5526 98.037 26.4622 98.7696 26.9594C99.394 27.3818 100.982 28.7278 101.546 28.8396C101.716 28.8737 102.296 28.8793 102.446 28.8256C102.765 28.7128 102.996 28.6543 103.089 28.6196L103.092 28.6151Z" fill="#FFC51D"/>
<path d="M45.4773 60.1537L42.4646 71.3971C42.4442 71.4733 42.3663 71.5202 42.2904 71.4998L40.002 70.8867C39.958 70.8749 39.9216 70.8423 39.9066 70.7989L37.5391 64.2954C37.4909 64.1635 37.3049 64.1747 37.2693 64.3115L35.8991 69.6368C35.8784 69.7141 35.8006 69.7609 35.7247 69.7406L33.2393 69.0746C33.1634 69.0543 33.1192 68.9759 33.1399 68.8986L36.1526 57.6551C36.173 57.5789 36.2508 57.5321 36.3267 57.5524L38.5942 58.16C38.6401 58.1723 38.6759 58.207 38.6915 58.2526L40.962 65.182C41.006 65.3171 41.1976 65.3095 41.2337 65.1707L42.7189 59.4158C42.7397 59.3384 42.8176 59.2916 42.8936 59.312L45.3787 59.9779C45.4537 59.998 45.499 60.0767 45.4783 60.154L45.4773 60.1537Z" fill="#1D1C1A"/>
<path d="M53.5903 74.5742L50.7965 73.8256C50.7226 73.8058 50.6705 73.7405 50.6655 73.6629L50.5642 71.6837C50.561 71.6195 50.5175 71.5664 50.4575 71.5503L47.0004 70.624C46.9393 70.6076 46.8738 70.6326 46.8387 70.6876L45.7487 72.3705C45.7141 72.4234 45.6504 72.449 45.5896 72.4327L42.7727 71.6779C42.6748 71.6517 42.6337 71.5336 42.6937 71.4494L49.8604 61.3246C49.9052 61.2612 49.9837 61.2321 50.0576 61.2519L52.5069 61.9082C52.5718 61.9256 52.6195 61.9831 52.6258 62.0514L53.7713 74.4186C53.7801 74.5214 53.6864 74.6032 53.5886 74.5769L53.5903 74.5742ZM50.4173 68.8073L50.2677 65.8855C50.2605 65.7407 50.0747 65.6909 49.9951 65.8124L48.4023 68.2728C48.3477 68.3564 48.3892 68.469 48.4841 68.4945L50.2313 68.9626C50.3282 68.9886 50.4231 68.9103 50.417 68.8084L50.4173 68.8073Z" fill="#1D1C1A"/>
<path d="M62.3083 64.6547L61.6713 67.0318C61.6506 67.1092 61.573 67.1549 61.4971 67.1346L59.4854 66.5955C59.4103 66.5754 59.3318 66.621 59.3111 66.6984L57.0066 75.2988C56.9859 75.3762 56.9083 75.422 56.8324 75.4016L54.2273 74.7036C54.1523 74.6835 54.1071 74.6048 54.1278 74.5274L56.4323 65.927C56.4527 65.8506 56.4087 65.7711 56.3328 65.7508L54.3061 65.2077C54.2302 65.1874 54.1858 65.109 54.2066 65.0317L54.8435 62.6545C54.8642 62.5771 54.9418 62.5315 55.0177 62.5518L62.2088 64.4786C62.2847 64.499 62.329 64.5773 62.3083 64.6547Z" fill="#1D1C1A"/>
<path d="M71.2659 67.0831L69.4465 73.8734C68.92 75.8382 68.253 76.5729 67.3473 77.1202C66.3177 77.7422 65.266 77.9154 63.9525 77.5635C63.3053 77.39 61.8595 76.8718 61.1389 75.4697C60.4535 74.1119 60.5278 73.1793 60.9515 71.5983L62.7709 64.8079C62.7917 64.7305 62.8693 64.6848 62.9452 64.7051L65.5503 65.4031C65.6251 65.4232 65.6705 65.5019 65.6498 65.5793L63.8303 72.3696C63.7198 72.782 63.6137 73.262 63.6683 73.6934C63.746 74.1988 64.1737 74.5522 64.6922 74.6911C65.2106 74.83 65.7707 74.7652 66.0463 74.3961C66.3161 74.0483 66.4567 73.5239 66.5696 73.1025L68.389 66.3122C68.4098 66.2348 68.4873 66.189 68.5632 66.2093L71.1684 66.9074C71.2433 66.9274 71.2885 67.0061 71.2678 67.0836L71.2659 67.0831Z" fill="#1D1C1A"/>
<path d="M77.0013 80.6102C77.0157 80.7124 76.922 80.7986 76.824 80.7723L73.9952 80.0143C73.9412 79.9999 73.901 79.9542 73.8926 79.8973L73.3396 76.048C73.3312 75.9913 73.2911 75.9456 73.2371 75.9311L72.7846 75.8098C72.7096 75.7898 72.6312 75.8353 72.6104 75.9127L71.7244 79.2192C71.7037 79.2966 71.626 79.3424 71.5501 79.322L68.9451 78.624C68.8692 78.6037 68.8248 78.5252 68.8455 78.4478L71.8581 67.2045C71.8786 67.1281 71.9566 67.0814 72.0325 67.1018L75.5205 68.0364C77.5374 68.5768 78.231 69.1085 78.697 69.791C79.3342 70.7288 79.5105 71.973 79.1807 73.2039C78.8509 74.4347 78.0643 75.4885 77.1986 75.9221C76.9395 76.0503 76.716 76.1409 76.4939 76.2068C76.4251 76.2278 76.3823 76.2959 76.3921 76.3672L77.002 80.6115L77.0013 80.6102ZM76.4075 72.5098C76.5583 71.9468 76.4382 71.5164 76.0401 71.1959C75.7063 70.9275 75.2467 70.8043 74.9431 70.723L74.2 70.5239C74.1241 70.5035 74.0464 70.5494 74.0257 70.6267L73.3947 72.9815C73.3743 73.0578 73.4184 73.1372 73.4943 73.1576L74.3414 73.3845C74.604 73.4549 75.0455 73.5732 75.4538 73.5036C76.0495 73.4024 76.3008 72.9079 76.4075 72.5098Z" fill="#1D1C1A"/>
<path d="M83.5603 70.3705L80.5504 81.6036C80.5291 81.683 80.4478 81.7311 80.3699 81.7102L77.7748 81.0149C77.6958 80.9937 77.6503 80.9116 77.6716 80.8322L80.6815 69.5991C80.7028 69.5197 80.7843 69.4717 80.8622 69.4926L83.4573 70.188C83.5352 70.2089 83.5816 70.2911 83.5603 70.3705Z" fill="#1D1C1A"/>
<path d="M93.6364 73.0578L90.6238 84.3013C90.6033 84.3775 90.5256 84.4244 90.4496 84.404L88.1612 83.7909C88.1172 83.7791 88.0809 83.7465 88.0657 83.7031L85.6984 77.1996C85.6502 77.0677 85.464 77.0789 85.4284 77.2156L84.0583 82.541C84.0376 82.6182 83.9598 82.6651 83.8838 82.6448L81.3985 81.9788C81.3226 81.9585 81.2784 81.88 81.2991 81.8028L84.3118 70.5593C84.3322 70.4831 84.41 70.4362 84.4859 70.4566L86.7534 71.0641C86.7994 71.0765 86.835 71.1112 86.8507 71.1568L89.1213 78.0862C89.1653 78.2213 89.3569 78.2137 89.3928 78.0749L90.8781 72.32C90.8988 72.2426 90.9768 72.1958 91.0527 72.2162L93.5379 72.882C93.6129 72.9022 93.6582 72.9809 93.6375 73.0581L93.6364 73.0578Z" fill="#1D1C1A"/>
<path d="M104.253 81.9531C104.093 82.5507 103.851 83.1186 103.535 83.6428C103.168 84.2494 102.709 84.7852 102.168 85.2362C101.438 85.8448 100.574 86.281 99.6679 86.4964C98.7189 86.7213 97.7621 86.7082 96.8222 86.4563C93.6198 85.5982 91.7418 82.1817 92.6371 78.8405C93.5324 75.4993 96.8659 73.4791 100.069 74.3374C101.009 74.5893 101.845 75.0565 102.554 75.7256C103.147 76.2859 103.628 76.978 103.959 77.742C104.005 77.847 103.956 77.9702 103.85 78.0129L101.607 78.9318C101.536 78.9609 101.455 78.9305 101.423 78.8606C101.014 77.986 100.25 77.3319 99.334 77.0865C97.5819 76.617 95.7585 77.7204 95.2696 79.5448C94.7808 81.3691 95.8082 83.2364 97.5603 83.7059C98.5631 83.9746 99.6147 83.7424 100.446 83.0703C100.537 82.9965 100.507 82.8488 100.395 82.8189L97.6822 82.0919C97.6033 82.0708 97.5568 81.9885 97.5783 81.9081L98.1756 79.6993C98.1968 79.62 98.2783 79.5718 98.3562 79.5927L104.27 81.1772C104.345 81.1973 104.391 81.2709 104.378 81.3491C104.351 81.5099 104.3 81.7779 104.253 81.9531Z" fill="#1D1C1A"/>
<path d="M93.9322 67.7472C93.6602 68.7622 93.0097 69.6232 92.2321 69.9965C90.945 70.6283 90.1471 70.5061 88.3559 70.0262L84.8599 69.0894C84.781 69.0683 84.7335 68.9858 84.7553 68.9043L87.7655 57.6701C87.7865 57.5918 87.8666 57.5444 87.9435 57.565L91.8742 58.6183C93.0558 58.9349 94.0047 59.4936 94.4768 60.1526L94.4779 60.1528L94.4783 60.155C94.9919 60.8317 95.125 61.7054 94.8642 62.6787C94.649 63.482 94.0181 64.1542 93.1322 64.5234C93.0334 64.5646 93.0118 64.6974 93.0926 64.767C93.9759 65.5264 94.2578 66.5283 93.9315 67.7459L93.9322 67.7472ZM91.2531 66.8417C91.3668 66.4172 91.2515 66.0763 90.911 65.8291C90.6482 65.631 90.2787 65.5319 90.0588 65.473L88.8152 65.1398C88.7383 65.1192 88.6595 65.1657 88.6385 65.2442L88.1638 67.0156C88.1426 67.0949 88.1883 67.1759 88.2662 67.1968L89.5078 67.5294C89.6847 67.5768 90.0533 67.6756 90.3931 67.626C90.8345 67.5685 91.1309 67.2977 91.2531 66.8417ZM89.3244 62.7241C89.3034 62.8024 89.3484 62.8821 89.4254 62.9028L90.3173 63.1418C90.4942 63.1891 90.8617 63.2876 91.1989 63.2438C91.6399 63.1928 91.9351 62.9338 92.0529 62.4939C92.1628 62.0837 92.0438 61.7528 91.7009 61.5103C91.4378 61.3175 91.0692 61.2187 90.8484 61.1596L89.9595 60.9214C89.8815 60.9005 89.8014 60.9479 89.7802 61.0273L89.3257 62.7234L89.3244 62.7241Z" fill="#1D1C1A"/>
<path d="M100.845 70.7003L99.9826 73.0039C99.9559 73.0753 99.88 73.1151 99.8071 73.0956L93.6559 71.4473C93.569 71.424 93.5175 71.3327 93.5412 71.2441L96.5467 60.0273C96.5683 59.9469 96.6494 59.8999 96.7273 59.9208L102.894 61.5731C102.966 61.5926 103.012 61.6648 102.999 61.741L102.597 64.1591C102.582 64.2501 102.493 64.3082 102.406 64.2847L98.8945 63.3439C98.8166 63.323 98.7365 63.3703 98.715 63.4507L98.3386 64.8555C98.3173 64.935 98.3627 65.017 98.4416 65.0382L100.997 65.7228C101.074 65.7434 101.119 65.8244 101.098 65.9028L100.467 68.2606C100.445 68.3411 100.364 68.389 100.285 68.3679L97.7306 67.6835C97.6537 67.6629 97.5736 67.7102 97.5527 67.7885L97.1263 69.3798C97.1047 69.4603 97.1514 69.5414 97.2294 69.5623L100.748 70.505C100.83 70.5272 100.877 70.6182 100.845 70.7003Z" fill="#1D1C1A"/>
<path d="M38.3838 56.6525L35.5899 55.9038C35.516 55.884 35.4639 55.8187 35.4591 55.741L35.3577 53.7618C35.3546 53.6977 35.3109 53.6445 35.251 53.6285L31.7938 52.7021C31.733 52.6858 31.6674 52.7108 31.6323 52.7658L30.5421 54.4487C30.5076 54.5017 30.4441 54.5271 30.3832 54.5108L27.5662 53.756C27.4684 53.7297 27.4272 53.6119 27.4871 53.5275L34.6538 43.4028C34.6986 43.3394 34.7771 43.3104 34.851 43.3302L37.3003 43.9864C37.3652 44.0038 37.4131 44.0614 37.4195 44.1296L38.5647 56.4969C38.5736 56.5996 38.4799 56.6814 38.382 56.6552L38.3838 56.6525ZM35.2112 50.8845L35.0616 47.9627C35.0544 47.8178 34.8685 47.768 34.7888 47.8896L33.1961 50.35C33.1416 50.4337 33.1831 50.5463 33.278 50.5717L35.025 51.0398C35.1218 51.0657 35.2167 50.9874 35.2109 50.8855L35.2112 50.8845Z" fill="#1D1C1A"/>
<path d="M45.9942 55.9664L45.1126 58.2779C45.0864 58.3473 45.0131 58.3855 44.9431 58.3667L38.8059 56.7223C38.73 56.7019 38.6858 56.6234 38.7065 56.5462L41.7224 45.2906C41.7431 45.2132 41.8206 45.1674 41.8965 45.1878L44.5017 45.8858C44.5777 45.9062 44.6219 45.9846 44.6011 46.062L42.2966 54.6625C42.2762 54.7387 42.3201 54.8182 42.3961 54.8385L45.9004 55.7775C45.9812 55.7991 46.025 55.8873 45.995 55.9676L45.9942 55.9664Z" fill="#1D1C1A"/>
<path d="M60.5839 50.3613L56.1508 61.2403C56.1232 61.307 56.0514 61.3435 55.9824 61.325L53.0827 60.548C53.0228 60.532 52.9804 60.4782 52.9783 60.4143L52.785 54.2433C52.7801 54.1014 52.5971 54.0532 52.5229 54.1742L49.3288 59.4342C49.2961 59.4886 49.2311 59.5149 49.1712 59.4988L46.2555 58.7175C46.1865 58.6991 46.1425 58.6317 46.152 58.56L47.7524 46.922C47.7638 46.8355 47.8473 46.7794 47.9302 46.8016L50.4384 47.4737C50.5093 47.4926 50.5536 47.5634 50.5404 47.6362L49.5041 53.6173C49.4775 53.7728 49.6783 53.8506 49.763 53.7184L53.1977 48.3156C53.2313 48.2624 53.2946 48.2378 53.3535 48.2536L55.0676 48.7129C55.1266 48.7287 55.1691 48.7816 55.1715 48.8445L55.4447 55.2408C55.4509 55.3974 55.665 55.4296 55.7195 55.2827L57.8125 49.5847C57.8375 49.5151 57.9112 49.476 57.9821 49.495L60.4903 50.1671C60.5723 50.189 60.6162 50.2804 60.5841 50.3602L60.5839 50.3613Z" fill="#1D1C1A"/>
<path d="M67.5962 64.4799L64.8023 63.7312C64.7284 63.7114 64.6763 63.6461 64.6715 63.5684L64.5701 61.5892C64.567 61.5251 64.5233 61.4719 64.4634 61.4559L61.0062 60.5295C60.9454 60.5132 60.8798 60.5382 60.8447 60.5932L59.7545 62.2761C59.72 62.3291 59.6565 62.3545 59.5956 62.3382L56.7786 61.5833C56.6809 61.5572 56.6396 61.4393 56.6995 61.3549L63.8663 51.2302C63.9111 51.1668 63.9895 51.1378 64.0634 51.1576L66.5127 51.8138C66.5776 51.8312 66.6255 51.8888 66.6318 51.9569L67.7771 64.3243C67.786 64.427 67.6923 64.5088 67.5944 64.4826L67.5962 64.4799ZM64.4236 58.7119L64.274 55.7901C64.2668 55.6452 64.0809 55.5954 64.0012 55.717L62.4085 58.1774C62.354 58.2611 62.3955 58.3736 62.4904 58.3991L64.2374 58.8672C64.3342 58.8931 64.4291 58.8148 64.4233 58.7129L64.4236 58.7119Z" fill="#1D1C1A"/>
<path d="M77.214 54.8729L72.2692 60.7015C72.255 60.7184 72.2446 60.7375 72.2391 60.7579L71.0473 65.2056C71.0266 65.283 70.9489 65.3288 70.873 65.3084L68.268 64.6104C68.193 64.5904 68.1477 64.5116 68.1684 64.4342L69.3602 59.9865C69.3659 59.965 69.3664 59.9433 69.3626 59.9216L67.9665 52.3939C67.9473 52.2895 68.0422 52.1993 68.1432 52.2264L70.961 52.9814C71.0159 52.9961 71.0569 53.0431 71.0639 53.1006L71.5697 56.9668C71.5864 57.0923 71.744 57.1356 71.8214 57.0343L74.2057 53.9415C74.2403 53.8961 74.2993 53.8759 74.3543 53.8906L77.1432 54.6379C77.2441 54.6649 77.2814 54.7896 77.2127 54.8704L77.214 54.8729Z" fill="#1D1C1A"/>
<path d="M82.0995 64.5769C81.9642 65.0818 81.6241 66.0273 80.8669 66.6875C79.9766 67.4649 78.757 67.6532 77.2438 67.2477C75.9861 66.9107 75.0902 66.3149 74.5773 65.4758C74.3575 65.1015 74.0678 64.4129 74.0943 63.4304C74.0971 63.3481 74.1649 63.2834 74.2452 63.2876L76.9693 63.4336C77.0442 63.4374 77.1014 63.4996 77.1015 63.5749C77.1138 64.4523 77.7498 64.6717 77.8916 64.7097C78.527 64.8799 79.066 64.4385 79.2019 63.9315C79.3511 63.3745 78.9785 63.0752 77.5909 61.9646L77.4753 61.8725C76.8196 61.363 75.0758 60.0075 75.6587 57.8319C76.2796 55.5149 78.6123 54.7999 80.4913 55.3034C80.8469 55.3987 81.4976 55.6233 82.0967 56.0926C82.5177 56.4313 83.3837 57.2908 83.2583 58.5654C83.2511 58.6409 83.1883 58.6994 83.1137 58.6979L80.5572 58.6654C80.489 58.6647 80.4295 58.6149 80.4201 58.5458C80.3772 58.2386 80.2163 57.9402 79.7249 57.8085C79.2704 57.6867 78.7145 57.8793 78.5713 58.4138C78.4384 58.9096 78.6991 59.131 80.3983 60.5651C82.0274 61.9368 82.5033 63.0615 82.0977 64.5754L82.0995 64.5769Z" fill="#1D1C1A"/>
<path fill-rule="evenodd" clip-rule="evenodd" d="M29.5791 55.2871C29.668 55.2507 29.7721 55.2839 29.8229 55.3679L34.315 62.801C34.3426 62.8466 34.3506 62.9016 34.337 62.9533C34.3234 63.0048 34.2894 63.0488 34.243 63.0751L26.6042 67.3856C26.5095 67.439 26.3895 67.4059 26.3356 67.3116L25.2586 65.4245C25.2323 65.3783 25.2256 65.3236 25.2402 65.2725C25.2548 65.2212 25.2894 65.1782 25.3362 65.153L29.3871 62.9604L21.7379 60.9108C21.6326 60.8826 21.5701 60.7742 21.5983 60.6689L22.1623 58.564C22.1905 58.4587 22.2988 58.3961 22.4041 58.4243L30.0535 60.474L27.6415 56.5497C27.6129 56.5032 27.6047 56.4469 27.6191 56.3944C27.6334 56.3417 27.669 56.2973 27.7173 56.2717L29.5615 55.2956L29.5791 55.2871Z" fill="#1D1C1A"/>
</g>
<defs>
<clipPath id="clip0_105_2804">
<rect width="109" height="103" fill="white" transform="translate(27.186 0.64917) rotate(15)"/>
</clipPath>
</defs>
</svg>
