<svg width="323" height="122" viewBox="0 0 323 122" fill="none" xmlns="http://www.w3.org/2000/svg">
<g clip-path="url(#clip0_843_6361)">
<path d="M0.540039 71.47C0.900039 102.35 26.25 121.79 49.07 121.07C72.4 120.43 99.69 102.35 100.05 71.83V0.550003H0.540039V71.47Z" fill="white"/>
<path d="M47.85 121.65C25.12 121.65 0.36 102.47 0 71.49V0H100.62V71.83C100.27 101.73 73.6 120.95 49.1 121.62C48.69 121.63 48.27 121.64 47.86 121.64L47.85 121.65ZM1.1 1.11V71.48C1.45 101.78 25.64 120.54 47.85 120.55C48.25 120.55 48.66 120.55 49.06 120.53C73.05 119.87 99.16 101.07 99.5 71.84V1.11H1.1Z" fill="#517F3A"/>
<path fill-rule="evenodd" clip-rule="evenodd" d="M65.78 55.41C42.66 28.48 14.8 50.08 14.3 69.52C13.65 93.21 33.3 106.82 49.14 106.17C65.56 105.59 85.29 93.93 85.79 71.25H85.29C82.19 85.87 67.86 87.95 60.45 82.77C51.74 76.65 51.23 60.23 65.78 55.41Z" fill="#517F3A"/>
<path fill-rule="evenodd" clip-rule="evenodd" d="M14.58 38.92V15.02H85.94V69.67H85.36C85.86 39.86 48.64 10.55 14.58 38.92Z" fill="#1D87C9"/>
<path fill-rule="evenodd" clip-rule="evenodd" d="M316.31 31.7504C316.31 33.1604 316.31 34.0604 318.02 34.1604C318.72 34.2004 319.19 34.2304 319.19 34.7304C319.19 35.2004 318.75 35.2004 318.49 35.2004C318.15 35.2004 317.01 35.0704 314.67 35.0704C312.33 35.0704 311.08 35.2004 310.88 35.2004C310.61 35.2004 310.18 35.2004 310.18 34.7004C310.18 34.2304 310.65 34.2004 311.35 34.1604C313.06 34.0304 313.06 33.1604 313.06 31.7504V22.7804C313.06 21.6704 312.86 21.5704 312.29 21.5704C312.22 21.5704 311.62 21.6404 311.49 21.6404C311.22 21.6404 310.99 21.5704 310.99 21.2404C310.99 20.8104 311.36 20.6404 312.26 20.4704C312.96 20.3404 313.06 20.2404 313.26 18.7604C313.83 14.6704 317.75 12.9704 319.89 13.0004C320.36 13.0004 322.71 13.1404 322.71 14.4404C322.71 14.9104 321.9 16.4504 321.3 16.4504C320.86 16.4504 320.4 15.9504 320.26 15.7804C319.29 14.4804 318.99 14.1104 318.35 14.1104C316.38 14.1104 316.24 18.2304 316.24 19.4304C316.24 20.1704 316.38 20.3004 316.98 20.3004H318.62C319.56 20.3004 319.79 20.2304 320.09 20.2304C320.39 20.2304 320.56 20.4004 320.56 21.2004C320.56 21.5004 320.43 21.6004 320.06 21.6004C319.39 21.6004 318.82 21.5304 317.05 21.5304C316.44 21.5304 316.31 21.7304 316.31 22.3304V31.7404V31.7504Z" fill="white"/>
<path fill-rule="evenodd" clip-rule="evenodd" d="M281.44 30.4804C281.44 31.9904 281.64 33.5304 283.38 33.5304C283.88 33.5304 284.35 33.4304 285.52 32.6904C285.62 32.6204 285.79 32.5604 285.89 32.5604C286.06 32.5604 286.16 32.7304 286.16 32.8604C286.16 33.3604 284.02 35.4004 281.57 35.4004C279.83 35.4004 278.19 34.2604 278.19 31.7504V22.1404C278.19 21.7004 277.92 21.5004 277.42 21.5404C277.15 21.5404 276.92 21.5704 276.65 21.5704C276.48 21.5704 276.08 21.5704 276.08 21.2004C276.08 20.8704 276.45 20.6604 276.58 20.6004L277.49 20.1304C278.29 19.7304 279.33 18.8204 280.43 17.1104C280.57 16.9404 280.77 16.7104 281 16.7104C281.1 16.7104 281.44 16.7104 281.44 17.2504V19.5304C281.44 20.1704 281.57 20.3004 282.28 20.3004H284.19C284.66 20.3004 284.9 20.2304 285.2 20.2304C285.47 20.2304 285.7 20.3004 285.63 20.9004C285.57 21.5004 285.46 21.6004 285.03 21.6004C284.46 21.6004 283.69 21.5304 282.08 21.5304C281.51 21.5304 281.45 21.6004 281.45 22.3004V30.4704L281.44 30.4804Z" fill="white"/>
<path fill-rule="evenodd" clip-rule="evenodd" d="M270.42 25.7304C270.42 24.1604 270.42 21.6404 267.14 21.6404C266.13 21.6404 265.1 22.0104 264.32 22.7804C263.82 23.2804 263.69 23.8504 263.69 24.6604V31.7604C263.69 33.6404 263.69 34.0404 265.13 34.2404C265.97 34.3404 266.13 34.5104 266.13 34.8104C266.13 35.2104 265.8 35.2104 265.56 35.2104C265.06 35.2104 262.68 35.0804 262.05 35.0804C261.55 35.0804 259.13 35.2104 258.6 35.2104C258.33 35.2104 257.99 35.2104 257.99 34.7704C257.99 34.4704 258.26 34.3304 259 34.2304C260.44 34.0304 260.44 33.6604 260.44 31.7904V25.3604C260.44 23.7904 260.44 23.0504 259.43 22.9804C258.9 22.9504 258.53 22.9504 258.53 22.5104C258.53 22.3104 258.63 22.1704 259 22.0704C259.23 22.0004 261.38 21.1004 262.42 19.8904C262.65 19.6204 262.92 19.2904 263.15 19.2904C263.45 19.2904 263.52 19.5904 263.52 19.8904V21.5304C263.52 22.1004 263.52 22.2004 263.65 22.2004C263.85 22.2004 264.02 22.1004 264.12 22.0004C266.17 20.0904 267.17 19.6604 269.04 19.6604C271.25 19.6604 273.66 20.8704 273.66 23.9804V31.7504C273.66 33.6304 273.66 34.0304 275.1 34.2304C275.94 34.3304 276.1 34.5004 276.1 34.8004C276.1 35.2004 275.77 35.2004 275.53 35.2004C275.03 35.2004 272.58 35.0704 272.05 35.0704C271.55 35.0704 269.1 35.2004 268.54 35.2004C268.3 35.2004 267.97 35.2004 267.97 34.7604C267.97 34.4604 268.2 34.3204 268.97 34.2204C270.41 34.0204 270.41 33.6504 270.41 31.7804V25.7204L270.42 25.7304Z" fill="white"/>
<path fill-rule="evenodd" clip-rule="evenodd" d="M236.7 24.7504C236.7 23.7804 236.7 21.5004 233.89 21.5004C232.38 21.5004 231.41 22.2404 231.01 22.6404C230.54 23.1404 230.51 23.8504 230.51 24.5504V31.7504C230.51 33.6304 230.51 34.0304 231.88 34.2304C232.72 34.3304 232.88 34.5004 232.88 34.8004C232.88 35.2004 232.55 35.2004 232.31 35.2004C231.77 35.2004 230.7 35.0704 228.89 35.0704C227.08 35.0704 225.98 35.2004 225.44 35.2004C225.17 35.2004 224.87 35.2004 224.87 34.7604C224.87 34.4604 225.1 34.3204 225.87 34.2204C227.24 34.0204 227.24 33.6504 227.24 31.7404V25.2104C227.24 23.5004 226.77 21.6304 224.46 21.6304C222.95 21.6304 222.22 22.0704 221.58 22.7704C221.14 23.2404 221.04 23.8404 221.04 24.6504V31.7504C221.04 33.6304 221.04 34.0304 222.41 34.2304C223.25 34.3304 223.41 34.5004 223.41 34.8004C223.41 35.2004 223.08 35.2004 222.77 35.2004C222.33 35.2004 221.1 35.0704 219.39 35.0704C217.85 35.0704 216.48 35.2004 215.94 35.2004C215.67 35.2004 215.3 35.2004 215.3 34.7604C215.3 34.4604 215.6 34.3204 216.34 34.2204C217.78 34.0204 217.78 33.6504 217.78 31.7804V25.3504C217.78 23.7804 217.78 23.0404 216.78 22.9704C216.24 22.9404 215.84 22.9404 215.84 22.5004C215.84 22.3004 215.97 22.1604 216.34 22.0604C216.57 21.9904 218.72 21.0904 219.76 19.8804C219.99 19.6104 220.26 19.2804 220.5 19.2804C220.8 19.2804 220.87 19.5804 220.87 19.8804V21.5204C220.87 22.0904 220.87 22.1904 221 22.1904C221.1 22.1904 221.27 22.0204 221.47 21.8204C223.35 19.8404 224.55 19.6404 226.06 19.6404C226.46 19.6404 228.54 19.6704 229.61 21.3804C230.08 22.1204 230.15 22.1804 230.28 22.1804C230.51 22.1804 231.28 21.3404 231.45 21.2104C232.79 20.1104 234.03 19.6404 235.2 19.6404C239.55 19.6404 239.92 22.6204 239.92 23.7304V31.7304C239.92 33.6104 239.92 34.0104 241.29 34.2104C242.13 34.3104 242.3 34.4804 242.3 34.7804C242.3 35.1804 241.96 35.1804 241.73 35.1804C241.23 35.1804 240.05 35.0504 238.31 35.0504C236.4 35.0504 235.4 35.1804 234.86 35.1804C234.63 35.1804 234.29 35.1804 234.29 34.7404C234.29 34.4404 234.56 34.3004 235.29 34.2004C236.66 34.0004 236.66 33.6304 236.66 31.7204V24.7204L236.7 24.7504Z" fill="white"/>
<path fill-rule="evenodd" clip-rule="evenodd" d="M210.1 30.4804C210.1 31.9904 210.3 33.5304 212.04 33.5304C212.54 33.5304 213.01 33.4304 214.18 32.6904C214.28 32.6204 214.45 32.5604 214.55 32.5604C214.72 32.5604 214.82 32.7304 214.82 32.8604C214.82 33.3604 212.68 35.4004 210.23 35.4004C208.49 35.4004 206.85 34.2604 206.85 31.7504V22.1404C206.85 21.7004 206.58 21.5004 206.08 21.5404C205.81 21.5404 205.58 21.5704 205.31 21.5704C205.14 21.5704 204.74 21.5704 204.74 21.2004C204.74 20.8704 205.11 20.6604 205.24 20.6004L206.14 20.1304C206.94 19.7304 207.98 18.8204 209.09 17.1104C209.22 16.9404 209.42 16.7104 209.66 16.7104C209.76 16.7104 210.1 16.7104 210.1 17.2504V19.5304C210.1 20.1704 210.23 20.3004 210.94 20.3004H212.85C213.32 20.3004 213.55 20.2304 213.85 20.2304C214.12 20.2304 214.35 20.3004 214.29 20.9004C214.22 21.5004 214.12 21.6004 213.69 21.6004C213.12 21.6004 212.35 21.5304 210.74 21.5304C210.17 21.5304 210.1 21.6004 210.1 22.3004V30.4704V30.4804Z" fill="white"/>
<path fill-rule="evenodd" clip-rule="evenodd" d="M301.7 19.6604C296.71 19.6604 293.56 23.7104 293.56 27.5304C293.56 31.3504 296.64 35.4004 301.83 35.4004C306.48 35.4004 309.76 31.6804 309.76 27.2304C309.76 22.1704 305.51 19.6604 301.69 19.6604H301.7ZM301.73 34.6304C299.08 34.6304 297.04 31.0804 297.04 26.9304C297.04 22.7804 299.01 20.4304 301.42 20.4304C305.07 20.4304 306.28 25.2504 306.28 27.5604C306.28 31.5104 304.17 34.6304 301.73 34.6304Z" fill="white"/>
<path fill-rule="evenodd" clip-rule="evenodd" d="M256.91 31.6504C256.71 31.6504 256.68 31.6804 256.18 32.1904C255.37 32.9604 254 33.5304 252.49 33.5304C249.04 33.5304 246.56 30.6504 246.56 26.9004C246.56 25.1604 246.86 25.1304 247.43 25.1304H256.37C256.9 25.1304 257.27 25.1304 257.27 24.5304C257.27 23.3904 256.2 19.6704 251.14 19.6704C246.59 19.6704 242.84 22.8804 242.84 27.8404C242.84 32.5004 246.19 35.4104 250.61 35.4104C255.03 35.4104 257.21 32.4604 257.21 31.9604C257.21 31.8604 257.14 31.6604 256.91 31.6604V31.6504ZM251.05 20.4304C251.55 20.4304 253.83 20.5004 253.83 22.4704C253.83 23.3404 253 24.0804 251.56 24.0804H247.91C247.14 24.0804 247.01 24.0804 247.01 23.7104C247.01 23.1804 248.05 20.4304 251.06 20.4304H251.05Z" fill="white"/>
<path fill-rule="evenodd" clip-rule="evenodd" d="M190.39 32.6604C190.22 32.6604 190.19 32.6904 189.82 32.9904C189.55 33.1904 189.22 33.3304 188.85 33.3304C187.91 33.3304 187.81 32.4904 187.81 31.4504V22.1104C187.81 20.7404 187.04 19.6704 183.89 19.6704C178.8 19.6704 176.69 23.1204 176.69 24.2604C176.69 24.6904 177.06 24.9304 177.43 24.9304C177.46 24.9304 179.41 24.7904 179.94 23.2904C180.21 22.5204 180.94 20.4704 182.89 20.4704C184.46 20.4704 184.56 22.0804 184.56 23.2504V25.4604C184.56 26.0704 184.53 26.3304 183.72 26.6704C178.56 28.7104 176.79 30.1504 176.79 32.6004C176.79 33.1004 176.96 35.4104 179.4 35.4104C180.91 35.4104 182.72 34.1704 184.36 32.9004C184.46 32.9004 184.53 32.9004 184.83 33.5404C185.23 34.3404 185.87 35.3504 187.17 35.3504C188.64 35.3504 190.69 33.7804 190.69 32.9704C190.69 32.8704 190.59 32.6704 190.39 32.6704V32.6604ZM184.57 29.7104C184.57 32.0504 183.26 33.2604 181.76 33.2604C181.02 33.2604 180.25 32.6604 180.25 31.0504C180.25 30.3804 180.25 29.1104 182.36 28.1004C182.9 27.8304 183.73 27.4004 184.2 27.4004C184.37 27.4004 184.57 27.4304 184.57 27.7704V29.7104Z" fill="white"/>
<path fill-rule="evenodd" clip-rule="evenodd" d="M168.33 19.6604C167.43 19.6604 166.45 19.7604 164.01 21.6404C163.91 21.7104 163.74 21.8404 163.57 21.8404C163.2 21.8404 163.2 21.5004 163.2 21.1704V19.7304C163.2 19.4304 163.27 19.0604 162.9 19.0604C162.67 19.0604 162.5 19.1904 162.26 19.4904C161.19 20.7304 159.68 21.4304 159.11 21.6304C158 22.0704 157.9 22.1004 157.9 22.4304C157.9 22.8704 158.23 22.8704 158.77 22.9004C159.91 22.9304 159.94 23.3704 159.94 25.5104V38.8704C159.94 40.3104 159.94 41.1804 158.23 41.3104C157.56 41.3504 157.06 41.3804 157.06 41.8504C157.06 42.3504 157.5 42.3504 157.76 42.3504C158.13 42.3504 158.76 42.2204 161.61 42.2204C163.82 42.2204 164.99 42.3504 165.43 42.3504C165.7 42.3504 166.13 42.3504 166.13 41.8804C166.13 41.3804 165.66 41.3504 164.96 41.3104C163.19 41.1804 163.19 40.3104 163.19 38.9304V35.4204C163.19 35.0804 163.19 34.7204 163.59 34.7204C163.69 34.7204 163.86 34.7904 163.96 34.8204C164.63 35.1204 165.9 35.3904 166.94 35.3904C170.69 35.3904 175.18 32.4404 175.18 27.2504C175.18 22.7004 171.9 19.6504 168.32 19.6504L168.33 19.6604ZM166.42 34.6004C165.45 34.6004 163.21 34.1604 163.21 31.2504V24.6504C163.21 23.9104 163.21 21.7704 166.32 21.7704C169.07 21.7704 171.68 23.8804 171.68 27.9704C171.68 32.0604 169.17 34.6004 166.42 34.6004Z" fill="white"/>
<path fill-rule="evenodd" clip-rule="evenodd" d="M146.76 25.1204H155.7C156.24 25.1204 156.6 25.1204 156.6 24.5204C156.6 23.3804 155.53 19.6604 150.47 19.6604C145.92 19.6604 142.16 22.8704 142.16 27.8304C142.16 32.4904 145.51 35.4004 149.93 35.4004C154.35 35.4004 156.53 32.4504 156.53 31.9504C156.53 31.8504 156.46 31.6504 156.23 31.6504C156.03 31.6504 156 31.6804 155.49 32.1904C154.69 32.9604 153.31 33.5304 151.81 33.5304C148.36 33.5304 145.88 30.6504 145.88 26.9004C145.88 25.1604 146.18 25.1304 146.75 25.1304L146.76 25.1204ZM150.38 20.4304C150.88 20.4304 153.16 20.5004 153.16 22.4704C153.16 23.3404 152.32 24.0804 150.88 24.0804H147.23C146.46 24.0804 146.33 24.0804 146.33 23.7104C146.33 23.1804 147.37 20.4304 150.38 20.4304Z" fill="white"/>
<path fill-rule="evenodd" clip-rule="evenodd" d="M136.07 16.3504C133.93 14.8804 131.52 14.2104 127.2 14.2104C124.09 14.2104 118.49 14.6804 118.49 15.6204C118.49 15.8904 118.66 15.9904 118.96 15.9904C119.19 15.9904 120.17 15.7204 120.37 15.7204C121.04 15.7204 121.44 16.1904 121.44 17.5604V31.7904C121.44 33.1604 121.44 34.0704 119.73 34.1704C119.06 34.2104 118.56 34.2404 118.56 34.7404C118.56 35.2104 119 35.2104 119.23 35.2104C119.4 35.2104 122.58 35.0804 123.18 35.0804C124.02 35.0804 128.34 35.2104 129.31 35.2104C138.05 35.2104 140.53 28.2804 140.53 24.6904C140.53 21.4404 138.82 18.2304 136.07 16.3504ZM128.17 34.3604C125.59 34.3604 125.02 33.1904 125.02 31.0504V17.7504C125.02 15.8704 125.22 15.0704 127.23 15.0704C134.33 15.0704 136.57 21.0604 136.57 24.8804C136.57 30.2404 132.62 34.3604 128.16 34.3604H128.17Z" fill="white"/>
<path fill-rule="evenodd" clip-rule="evenodd" d="M197.47 21.6104C197.47 21.8104 197.47 22.0804 197.67 22.0804C197.77 22.0804 197.94 21.8804 197.97 21.8104C198.04 21.7104 199.68 19.8004 201.62 19.8004C202.83 19.8004 204.03 20.4704 204.03 21.8104C204.03 23.1504 202.82 23.7204 201.99 23.7204C201.25 23.7204 200.78 23.4504 200.25 22.8504C199.68 22.2104 199.41 22.1504 199.21 22.1504C198.54 22.1504 197.57 22.6504 197.57 25.4304V31.7904C197.57 33.1604 197.57 34.0704 199.28 34.1704C200.02 34.2104 200.49 34.2404 200.49 34.7404C200.49 35.2104 200.05 35.2104 199.79 35.2104C199.22 35.2104 196.51 35.0804 195.91 35.0804C195.41 35.0804 192.96 35.2104 192.43 35.2104C192.2 35.2104 191.86 35.2104 191.86 34.7704C191.86 34.4704 192.09 34.3304 192.86 34.2304C194.33 34.0304 194.33 33.6604 194.33 31.7904V25.3304C194.33 23.2204 193.89 23.1504 192.62 23.0904C192.52 23.0904 192.18 23.0904 192.18 22.7204C192.18 22.4804 192.31 22.3504 192.72 22.2504C193.49 21.9804 195.4 20.9404 196.1 20.2104C196.17 20.1404 196.94 19.3704 197.1 19.3704C197.43 19.3704 197.47 19.6404 197.47 19.9404V21.6104Z" fill="white"/>
<path fill-rule="evenodd" clip-rule="evenodd" d="M316.06 63.0704C316.06 61.3204 316.06 58.5204 312.4 58.5204C311.28 58.5204 310.12 58.9304 309.27 59.7904C308.71 60.3504 308.56 60.9904 308.56 61.8804V69.7904C308.56 71.8804 308.56 72.3304 310.16 72.5504C311.09 72.6604 311.28 72.8504 311.28 73.1804C311.28 73.6304 310.91 73.6304 310.65 73.6304C310.09 73.6304 307.44 73.4804 306.73 73.4804C306.17 73.4804 303.48 73.6304 302.89 73.6304C302.59 73.6304 302.22 73.6304 302.22 73.1504C302.22 72.8104 302.52 72.6704 303.34 72.5504C304.94 72.3304 304.94 71.9204 304.94 69.8304V62.6604C304.94 60.9104 304.94 60.0904 303.82 60.0104C303.22 59.9704 302.81 59.9704 302.81 59.4904C302.81 59.2604 302.92 59.1204 303.33 59.0004C303.59 58.9204 305.98 57.9204 307.14 56.5704C307.4 56.2704 307.7 55.9004 307.96 55.9004C308.3 55.9004 308.37 56.2404 308.37 56.5704V58.4004C308.37 59.0304 308.37 59.1504 308.52 59.1504C308.74 59.1504 308.93 59.0404 309.04 58.9204C311.32 56.7904 312.44 56.3104 314.52 56.3104C316.98 56.3104 319.67 57.6504 319.67 61.1204V69.7804C319.67 71.8704 319.67 72.3204 321.28 72.5404C322.21 72.6504 322.4 72.8404 322.4 73.1704C322.4 73.6204 322.03 73.6204 321.77 73.6204C321.21 73.6204 318.49 73.4704 317.89 73.4704C317.33 73.4704 314.61 73.6204 313.97 73.6204C313.71 73.6204 313.34 73.6204 313.34 73.1404C313.34 72.8004 313.6 72.6604 314.46 72.5404C316.06 72.3204 316.06 71.9104 316.06 69.8204V63.0604V63.0704Z" fill="white"/>
<path fill-rule="evenodd" clip-rule="evenodd" d="M278.24 54.1904C277.05 54.1904 276.15 53.2604 276.15 52.1704C276.15 51.0804 277.01 50.1204 278.24 50.1204C279.4 50.1204 280.29 51.0504 280.29 52.2104C280.29 53.1804 279.47 54.1904 278.24 54.1904Z" fill="white"/>
<path fill-rule="evenodd" clip-rule="evenodd" d="M292.42 56.3204C286.86 56.3204 283.35 60.8304 283.35 65.0904C283.35 69.3504 286.78 73.8604 292.57 73.8604C297.76 73.8604 301.41 69.7204 301.41 64.7604C301.41 59.1204 296.67 56.3304 292.42 56.3304V56.3204ZM292.45 73.0004C289.5 73.0004 287.23 69.0404 287.23 64.4204C287.23 59.8004 289.43 57.1804 292.12 57.1804C296.19 57.1804 297.53 62.5504 297.53 65.1304C297.53 69.5304 295.18 73.0004 292.46 73.0004H292.45Z" fill="white"/>
<path fill-rule="evenodd" clip-rule="evenodd" d="M261 70.8004C260.81 70.8004 260.78 70.8404 260.37 71.1704C260.07 71.3904 259.7 71.5404 259.29 71.5404C258.24 71.5404 258.13 70.6104 258.13 69.4504V59.0404C258.13 57.5104 257.27 56.3204 253.76 56.3204C248.09 56.3204 245.74 60.1604 245.74 61.4304C245.74 61.9104 246.15 62.1804 246.56 62.1804C246.6 62.1804 248.76 62.0304 249.36 60.3504C249.66 59.4904 250.48 57.2104 252.64 57.2104C254.4 57.2104 254.51 59.0004 254.51 60.3104V62.7704C254.51 63.4404 254.47 63.7404 253.58 64.1104C247.83 66.3904 245.86 67.9904 245.86 70.7204C245.86 71.2804 246.05 73.8504 248.77 73.8504C250.45 73.8504 252.47 72.4704 254.29 71.0504C254.4 71.0504 254.48 71.0504 254.81 71.7604C255.26 72.6504 255.97 73.7704 257.42 73.7704C259.06 73.7704 261.34 72.0204 261.34 71.1204C261.34 71.0104 261.23 70.7804 261 70.7804V70.8004ZM254.5 67.5204C254.5 70.1304 253.04 71.4804 251.37 71.4804C250.55 71.4804 249.69 70.8104 249.69 69.0204C249.69 68.2704 249.69 66.8504 252.04 65.7404C252.63 65.4404 253.57 64.9604 254.09 64.9604C254.28 64.9604 254.5 65.0004 254.5 65.3704V67.5404V67.5204Z" fill="white"/>
<path fill-rule="evenodd" clip-rule="evenodd" d="M204.14 56.2704C199.06 56.2704 194.88 59.8504 194.88 65.3704C194.88 70.5604 198.61 73.8004 203.54 73.8004C208.47 73.8004 210.89 70.5204 210.89 69.9604C210.89 69.8504 210.81 69.6204 210.55 69.6204C210.33 69.6204 210.29 69.6604 209.73 70.2204C208.84 71.0804 207.3 71.7104 205.63 71.7104C201.79 71.7104 199.02 68.5004 199.02 64.3204C199.02 62.3804 199.36 62.3404 199.99 62.3404H209.95C210.55 62.3404 210.96 62.3404 210.96 61.6704C210.96 60.4004 209.77 56.2604 204.13 56.2604L204.14 56.2704ZM204.59 61.2004H200.52C199.66 61.2004 199.51 61.2004 199.51 60.7904C199.51 60.1904 200.67 57.1304 204.03 57.1304C204.59 57.1304 207.13 57.2104 207.13 59.4104C207.13 60.3804 206.2 61.2004 204.59 61.2004Z" fill="white"/>
<path fill-rule="evenodd" clip-rule="evenodd" d="M281.67 72.5504C280.07 72.3304 280.07 71.8804 280.07 69.8304V57.7804C280.07 56.9604 280.07 56.4704 279.66 56.4704C279.36 56.4704 278.2 57.4804 277.94 57.6704C277.31 58.1204 276.45 58.6004 274.66 59.2004C274.21 59.3504 274.06 59.5404 274.06 59.8004C274.06 60.2504 274.66 60.2904 274.77 60.2904C276.12 60.3704 276.45 60.8904 276.45 62.7904V69.8804C276.45 71.9304 276.45 72.3404 274.85 72.5704C274.03 72.6804 273.73 72.8304 273.73 73.1704C273.73 73.6504 274.1 73.6504 274.36 73.6504C274.99 73.6504 276.71 73.5004 278.28 73.5004C280 73.5004 281.6 73.6504 282.16 73.6504C282.42 73.6504 282.79 73.6504 282.79 73.2004C282.79 72.8604 282.61 72.6804 281.67 72.5704V72.5504Z" fill="white"/>
<path fill-rule="evenodd" clip-rule="evenodd" d="M272.57 70.6904C272.45 70.6904 272.27 70.7604 272.16 70.8404C270.85 71.6604 270.33 71.7704 269.77 71.7704C267.83 71.7704 267.61 70.0504 267.61 68.3704V59.2604C267.61 58.4804 267.69 58.4004 268.32 58.4004C270.11 58.4004 270.97 58.4704 271.6 58.4704C272.09 58.4704 272.2 58.3604 272.27 57.6904C272.34 57.0204 272.08 56.9404 271.78 56.9404C271.44 56.9404 271.18 57.0104 270.66 57.0104H268.53C267.74 57.0104 267.6 56.8604 267.6 56.1504V53.6104C267.6 53.0104 267.23 53.0104 267.12 53.0104C266.86 53.0104 266.63 53.2704 266.49 53.4604C265.26 55.3604 264.1 56.3704 263.21 56.8204L262.2 57.3404C262.05 57.4104 261.64 57.6404 261.64 58.0104C261.64 58.4204 262.09 58.4204 262.27 58.4204C262.57 58.4204 262.83 58.3804 263.13 58.3804C263.69 58.3404 263.99 58.5704 263.99 59.0504V69.7604C263.99 72.5604 265.82 73.8304 267.76 73.8304C270.49 73.8304 272.87 71.5504 272.87 71.0004C272.87 70.8504 272.76 70.6604 272.57 70.6604V70.6904Z" fill="white"/>
<path fill-rule="evenodd" clip-rule="evenodd" d="M246.26 57.3704C246.26 56.8804 245.88 56.8804 245.66 56.8804C245.18 56.8804 244.28 57.0304 242.41 57.0304C240.99 57.0304 239.72 56.8804 239.35 56.8804C238.94 56.8804 238.42 56.8804 238.42 57.4004C238.42 57.8104 238.76 57.8504 239.76 57.8804C240.51 57.9204 241.4 58.1104 241.4 59.2204C241.4 59.9704 240.77 61.5304 240.54 62.0204L237.48 68.8504L233.94 60.1604C233.9 60.0104 233.64 59.3804 233.64 58.9304C233.64 58.0004 234.69 57.9204 234.91 57.9204C235.36 57.8804 236.1 57.8404 236.1 57.3204C236.1 56.8704 235.54 56.8704 235.32 56.8704C234.46 56.8704 233.6 57.0204 231.74 57.0204C229.88 57.0204 228.87 56.8704 227.75 56.8704C227.34 56.8704 226.78 56.8704 226.78 57.3204C226.78 57.7704 227.16 57.8104 227.34 57.8104C228.61 57.8804 229.02 58.0704 229.99 60.3804L235.44 73.5504C235.62 73.9604 235.78 74.1804 236.11 74.1804C236.33 74.1804 236.48 74.0004 236.71 73.4704L242.53 60.4504C243.58 58.1004 244.47 57.9904 244.99 57.9104C246.15 57.7604 246.26 57.7604 246.26 57.3504V57.3704Z" fill="white"/>
<path fill-rule="evenodd" clip-rule="evenodd" d="M223.53 56.4704C221.37 56.4704 219.54 58.6004 219.46 58.7104C219.42 58.7904 219.24 59.0104 219.12 59.0104C218.9 59.0104 218.9 58.7104 218.9 58.4904V56.6304C218.9 56.2904 218.86 56.0004 218.49 56.0004C218.3 56.0004 217.44 56.8604 217.37 56.9304C216.59 57.7504 214.46 58.9104 213.6 59.2104C213.15 59.3204 213 59.4704 213 59.7304C213 60.1404 213.37 60.1404 213.49 60.1404C214.91 60.2104 215.39 60.2904 215.39 62.6404V69.8404C215.39 71.9304 215.39 72.3404 213.75 72.5604C212.89 72.6704 212.63 72.8204 212.63 73.1604C212.63 73.6404 213 73.6404 213.26 73.6404C213.85 73.6404 216.58 73.4904 217.14 73.4904C217.81 73.4904 220.84 73.6404 221.47 73.6404C221.77 73.6404 222.25 73.6404 222.25 73.1204C222.25 72.5604 221.73 72.5304 220.91 72.4904C219.01 72.3804 219.01 71.3704 219.01 69.8404V62.7504C219.01 59.6504 220.09 59.0904 220.84 59.0904C221.06 59.0904 221.36 59.1604 222 59.8704C222.6 60.5404 223.12 60.8404 223.94 60.8404C224.87 60.8404 226.22 60.2404 226.22 58.7104C226.22 57.1804 224.88 56.4704 223.53 56.4704Z" fill="white"/>
<path fill-rule="evenodd" clip-rule="evenodd" d="M188.59 62.8104C184.82 61.2404 184 60.9104 184 59.4104C184 58.0704 185.38 57.1704 186.99 57.1704C189.49 57.1704 190.5 59.1504 190.72 59.8604C190.94 60.5704 191.13 60.6404 191.39 60.6404C191.76 60.6404 191.84 60.1904 191.84 60.0404L191.99 57.8404C191.99 57.2404 191.99 56.8304 191.06 56.7204C190.76 56.7204 188 56.3104 187.44 56.3104C182.48 56.3104 180.8 59.3004 180.8 61.4204C180.8 64.1104 183.45 65.1504 185.65 66.0104C188.22 67.0204 189.94 67.8704 189.94 69.8504C189.94 71.8304 188 72.9104 186.32 72.9104C183.3 72.9104 182.22 69.6604 182.03 68.9904C181.85 68.2804 181.66 67.9404 181.25 67.9404C180.76 67.9404 180.73 68.5004 180.73 68.6104L180.65 71.3704C180.65 72.2704 180.65 72.5604 181.1 72.7904C181.25 72.9004 183.56 73.8304 185.8 73.8304C190.73 73.8304 193 70.6204 193 67.8204C193 64.6104 189.87 63.3404 188.6 62.7804L188.59 62.8104Z" fill="white"/>
<path fill-rule="evenodd" clip-rule="evenodd" d="M177.99 72.5504C176.39 72.3304 176.39 71.8804 176.39 69.7904V61.1304C176.39 57.6604 173.7 56.3204 171.24 56.3204C169.15 56.3204 168.03 56.8004 165.76 58.9304C165.65 59.0404 165.46 59.1604 165.24 59.1604C165.09 59.1604 165.09 59.0504 165.09 58.4104V56.5804C165.09 56.2404 165.01 55.9104 164.68 55.9104C164.42 55.9104 164.12 56.2804 163.86 56.5804C162.7 57.9204 160.32 58.9304 160.06 59.0104C159.65 59.1204 159.54 59.2704 159.54 59.5004C159.54 59.9804 159.95 59.9804 160.55 60.0204C161.67 60.0904 161.67 60.9204 161.67 62.6704V69.8404C161.67 71.9304 161.67 72.3404 160.07 72.5604C159.25 72.6704 158.95 72.8204 158.95 73.1604C158.95 73.6404 159.32 73.6404 159.62 73.6404C160.22 73.6404 162.9 73.4904 163.46 73.4904C164.17 73.4904 166.82 73.6404 167.38 73.6404C167.64 73.6404 168.01 73.6404 168.01 73.1904C168.01 72.8504 167.82 72.6704 166.89 72.5604C165.29 72.3404 165.29 71.8904 165.29 69.8004V61.8904C165.29 61.0004 165.44 60.3604 166 59.8004C166.86 58.9404 168.02 58.5304 169.14 58.5304C172.8 58.5304 172.8 61.3304 172.8 63.0804V69.8404C172.8 71.9304 172.8 72.3404 171.2 72.5604C170.34 72.6704 170.08 72.8204 170.08 73.1604C170.08 73.6404 170.45 73.6404 170.71 73.6404C171.34 73.6404 174.07 73.4904 174.63 73.4904C175.23 73.4904 177.95 73.6404 178.51 73.6404C178.77 73.6404 179.14 73.6404 179.14 73.1904C179.14 72.8504 178.95 72.6704 178.02 72.5604L177.99 72.5504Z" fill="white"/>
<path fill-rule="evenodd" clip-rule="evenodd" d="M138.09 67.2504C137.72 67.2504 137.42 67.8104 137.34 67.9604C135.77 70.8304 134.13 72.9204 130.7 72.9204C125.06 72.9204 122 66.9504 122 61.7304C122 56.9504 124.84 50.9804 130.96 50.9804C134.39 50.9804 135.77 52.7304 137.12 54.7504C137.53 55.3504 137.75 55.4204 138.01 55.4204C138.46 55.4204 138.46 55.1604 138.46 54.7904L138.12 52.1804C137.97 51.1704 137.78 50.8404 136.11 50.5404C133.57 50.1304 132.94 50.0204 131.22 50.0204C121.48 50.0204 117 56.7004 117 61.8904C117 66.6304 121.14 73.8704 130.58 73.8704C134.35 73.8704 136.85 72.7104 137.44 72.3404C138.22 71.8904 138.3 71.5604 138.33 71.0304L138.63 67.8604C138.63 67.6004 138.63 67.2604 138.07 67.2604L138.09 67.2504Z" fill="white"/>
<path fill-rule="evenodd" clip-rule="evenodd" d="M149.12 56.3204C143.56 56.3204 140.05 60.8304 140.05 65.0904C140.05 69.3504 143.48 73.8604 149.27 73.8604C154.46 73.8604 158.11 69.7204 158.11 64.7604C158.11 59.1204 153.37 56.3304 149.12 56.3304V56.3204ZM149.16 73.0004C146.21 73.0004 143.94 69.0404 143.94 64.4204C143.94 59.8004 146.14 57.1804 148.83 57.1804C152.9 57.1804 154.24 62.5504 154.24 65.1304C154.24 69.5304 151.89 73.0004 149.16 73.0004Z" fill="white"/>
<path fill-rule="evenodd" clip-rule="evenodd" d="M310.71 104.02C310.6 104.02 310.49 104.11 310.37 104.27C310.07 104.85 308.56 106.83 307.89 106.83C307.67 106.83 307.61 106.58 307.61 106.36C307.61 105.16 310.92 96.0304 310.92 95.8104C310.92 95.5104 310.53 95.5104 310.33 95.5104L309.41 95.4804C308.6 95.4804 308.43 95.5904 308.29 95.9804C308.26 96.0904 308.15 96.3404 308.04 96.3404C307.96 96.3404 307.59 96.1404 307.59 96.1404C307.31 95.9704 306.73 95.7804 305.92 95.7804C302.16 95.7804 296.2 100.43 296.2 105.75C296.2 107.31 296.95 108.65 298.51 108.65C301.07 108.65 303.55 105.45 305.53 102.89C305.78 102.58 306.06 102.19 306.23 102.05C306.2 102.16 306.07 102.61 306.01 102.75L305.46 104.42C305.21 105.15 304.71 106.76 304.71 107.46C304.71 108.63 305.52 108.63 305.82 108.63C308.3 108.63 310.94 104.98 310.94 104.29C310.94 104.15 310.83 104.04 310.69 104.04L310.71 104.02ZM300.21 106.7C299.12 106.7 299.12 105.61 299.12 105.25C299.12 102.69 302.43 96.4504 306.11 96.4504C306.44 96.4504 307.67 96.5304 307.67 97.6504C307.67 99.7904 302.3 106.7 300.21 106.7Z" fill="white"/>
<path fill-rule="evenodd" clip-rule="evenodd" d="M257.05 104.02C256.94 104.02 256.83 104.11 256.71 104.27C256.41 104.85 254.9 106.83 254.23 106.83C254.01 106.83 253.95 106.58 253.95 106.36C253.95 105.16 257.26 96.0304 257.26 95.8104C257.26 95.5104 256.87 95.5104 256.67 95.5104L255.75 95.4804C254.94 95.4804 254.77 95.5904 254.64 95.9804C254.61 96.0904 254.5 96.3404 254.39 96.3404C254.31 96.3404 253.94 96.1404 253.94 96.1404C253.66 95.9704 253.08 95.7804 252.27 95.7804C248.51 95.7804 242.55 100.43 242.55 105.75C242.55 107.31 243.3 108.65 244.86 108.65C247.42 108.65 249.9 105.45 251.87 102.89C252.12 102.58 252.4 102.19 252.57 102.05C252.54 102.16 252.4 102.61 252.35 102.75L251.79 104.42C251.54 105.15 251.04 106.76 251.04 107.46C251.04 108.63 251.85 108.63 252.16 108.63C254.64 108.63 257.28 104.98 257.28 104.29C257.28 104.15 257.17 104.04 257.03 104.04L257.05 104.02ZM246.55 106.7C245.46 106.7 245.46 105.61 245.46 105.25C245.46 102.69 248.77 96.4504 252.45 96.4504C252.79 96.4504 254.01 96.5304 254.01 97.6504C254.01 99.7904 248.64 106.7 246.55 106.7Z" fill="white"/>
<path fill-rule="evenodd" clip-rule="evenodd" d="M232.13 107.56C231.35 107.53 231.21 107.45 231.07 104.86L230.34 92.0004C230.31 91.7204 230.29 90.8604 230.2 90.6904C230.17 90.5504 230.09 90.4404 229.9 90.4404C229.45 90.4404 226.31 94.5904 225.58 95.5404L219.01 104.39C216.75 107.4 216.67 107.4 215.42 107.62C215.11 107.68 214.92 107.78 214.92 108.04C214.92 108.37 215.23 108.43 215.42 108.43C215.81 108.43 216.34 108.21 218.2 108.21C218.95 108.21 220.79 108.43 221.15 108.43C221.62 108.43 221.71 108.15 221.71 108.01C221.71 107.62 221.4 107.59 220.71 107.48C219.87 107.34 219.12 107.2 219.12 106.45C219.12 106.17 219.18 105.92 219.87 104.95L221.88 102.16H227.67L227.84 106.11C227.84 107.17 227.59 107.39 226.2 107.56C225.75 107.62 225.5 107.73 225.5 108.06C225.5 108.31 225.72 108.42 225.95 108.42C226.45 108.42 226.65 108.2 229.07 108.2C231.49 108.2 232.13 108.42 232.55 108.42C232.77 108.42 233.02 108.31 233.02 107.97C233.02 107.77 232.97 107.58 232.13 107.55V107.56ZM222.58 101.13L225.42 97.2304C225.65 96.8904 227.18 94.8304 227.29 94.8304C227.4 94.8304 227.4 94.8904 227.43 95.4704L227.65 101.12H222.58V101.13Z" fill="white"/>
<path fill-rule="evenodd" clip-rule="evenodd" d="M210.33 104.02C210.22 104.02 210.11 104.11 210 104.27C209.69 104.85 208.19 106.83 207.52 106.83C207.3 106.83 207.24 106.58 207.24 106.36C207.24 105.16 210.55 96.0304 210.55 95.8104C210.55 95.5104 210.16 95.5104 209.96 95.5104L209.04 95.4804C208.23 95.4804 208.06 95.5904 207.93 95.9804C207.9 96.0904 207.79 96.3404 207.68 96.3404C207.6 96.3404 207.23 96.1404 207.23 96.1404C206.95 95.9704 206.37 95.7804 205.56 95.7804C201.8 95.7804 195.84 100.43 195.84 105.75C195.84 107.31 196.59 108.65 198.15 108.65C200.71 108.65 203.19 105.45 205.17 102.89C205.42 102.58 205.7 102.19 205.87 102.05C205.84 102.16 205.7 102.61 205.65 102.75L205.09 104.42C204.84 105.15 204.34 106.76 204.34 107.46C204.34 108.63 205.15 108.63 205.45 108.63C207.93 108.63 210.57 104.98 210.57 104.29C210.57 104.15 210.46 104.04 210.32 104.04L210.33 104.02ZM199.83 106.7C198.74 106.7 198.74 105.61 198.74 105.25C198.74 102.69 202.05 96.4504 205.73 96.4504C206.06 96.4504 207.29 96.5304 207.29 97.6504C207.29 99.7904 201.92 106.7 199.83 106.7Z" fill="white"/>
<path fill-rule="evenodd" clip-rule="evenodd" d="M190.17 95.3904C188.81 95.3904 188.28 95.5004 187.58 95.6104C187.58 95.4404 188.36 93.5204 188.36 93.1604C188.36 92.9604 188.3 92.9104 187.94 92.9104C186.07 92.9104 186.02 92.9604 185.91 93.0804C185.74 93.2204 185.52 93.9704 185.1 95.3604L184.93 95.9204C182.48 96.3404 182.2 96.3704 182.2 96.8404C182.2 96.9804 182.28 97.1204 182.67 97.0904C182.92 97.0104 183.98 96.7904 184.65 96.7304L179.86 111.35C179.41 112.72 179.08 113.22 177.74 113.33C177.1 113.38 176.54 113.41 176.54 113.92C176.54 114.03 176.57 114.22 176.82 114.22C176.96 114.22 178.02 114 180.3 114C182.22 114 183.86 114.22 183.97 114.22C184.22 114.22 184.58 114.22 184.58 113.83C184.58 113.47 184.25 113.44 183.24 113.33C182.74 113.28 182.24 113.13 182.24 112.58C182.24 112.38 182.3 112.11 182.41 111.74L183.58 107.79C184 108.13 184.67 108.63 186.31 108.63C192.16 108.63 194.75 102.39 194.75 99.1904C194.75 95.4004 191.16 95.4004 190.16 95.4004L190.17 95.3904ZM185.89 107.95C184.83 107.95 184.05 107.39 184.05 106.59C184.05 106.42 184.13 105.84 184.41 105.06L187.39 96.3204C187.89 96.2704 188.42 96.1804 189.09 96.1804C190.45 96.1804 192.1 96.4304 192.1 98.8504C192.1 101.27 189.98 107.95 185.89 107.95Z" fill="white"/>
<path fill-rule="evenodd" clip-rule="evenodd" d="M179.59 104.28C179.59 104.14 179.48 104.03 179.34 104.03C179.23 104.03 179.12 104.12 179.01 104.28C178.7 104.86 177.2 106.84 176.53 106.84C176.31 106.84 176.25 106.59 176.25 106.37C176.25 105.17 179.56 96.0404 179.56 95.8204C179.56 95.5204 179.17 95.5204 178.98 95.5204L178.06 95.4904C177.25 95.4904 177.09 95.6004 176.95 95.9904C176.92 96.1004 176.81 96.3504 176.7 96.3504C176.62 96.3504 176.25 96.1504 176.25 96.1504C175.97 95.9804 175.39 95.7904 174.58 95.7904C170.82 95.7904 164.86 100.44 164.86 105.76C164.86 107.32 165.61 108.66 167.17 108.66C169.73 108.66 172.21 105.46 174.19 102.9C174.44 102.59 174.72 102.2 174.89 102.06C174.86 102.17 174.72 102.62 174.67 102.76L174.11 104.43C173.86 105.16 173.36 106.77 173.36 107.47C173.36 108.64 174.17 108.64 174.47 108.64C176.95 108.64 179.59 104.99 179.59 104.3V104.28ZM168.84 106.7C167.75 106.7 167.75 105.61 167.75 105.25C167.75 102.69 171.06 96.4504 174.74 96.4504C175.08 96.4504 176.3 96.5304 176.3 97.6504C176.3 99.7904 170.93 106.7 168.84 106.7Z" fill="white"/>
<path fill-rule="evenodd" clip-rule="evenodd" d="M162.11 90.7504C160.3 90.7504 159.3 90.9704 156.79 90.9704C154.67 90.9704 154.42 90.7504 153.87 90.7504C153.67 90.7504 153.37 90.8304 153.37 91.1404C153.37 91.3904 153.54 91.5304 154.09 91.5604C154.51 91.5604 155.29 91.7004 155.29 92.2804C155.29 92.6404 155.15 93.0304 155.07 93.3404L151.48 105.62C150.95 107.43 150.76 107.46 149.39 107.6C148.89 107.66 148.5 107.71 148.5 108.1C148.5 108.35 148.58 108.43 148.97 108.43C149.28 108.43 150.75 108.21 152.56 108.21C154.37 108.21 156.43 108.43 156.54 108.43C156.71 108.43 156.99 108.37 156.99 108.01C156.99 107.71 156.91 107.62 155.93 107.54C154.98 107.46 154.48 107.43 154.48 106.59C154.48 106.09 154.76 105.03 154.84 104.75L156.07 100.55C160.86 100.55 161.89 100.13 162.78 99.7704C164.87 98.9304 166.54 96.7304 166.54 94.4804C166.54 94.1204 166.54 90.7504 162.11 90.7504ZM160.58 98.9004C159.19 99.6804 157.63 99.7404 156.29 99.7904L158.35 92.7704C158.68 91.6004 158.71 91.6004 159.83 91.6004C161.03 91.6004 163.42 91.6004 163.42 94.3604C163.42 96.0604 162.42 97.8404 160.58 98.9004Z" fill="white"/>
<path fill-rule="evenodd" clip-rule="evenodd" d="M140.05 95.5104C137.07 95.5104 131.78 98.5704 131.78 104.03C131.78 107.09 133.9 108.62 135.98 108.62C139.01 108.62 141.77 105.31 141.77 104.83C141.77 104.69 141.71 104.55 141.55 104.55C141.41 104.55 141.35 104.61 140.74 105.22C138.99 106.92 137.62 107 137.12 107C136.59 107 134.78 106.75 134.78 104.02C134.78 103.86 134.78 103.66 134.84 103.16L138.18 102.55C139.32 102.35 143.53 101.44 143.53 98.4304C143.53 96.4804 141.61 95.5104 140.05 95.5104ZM134.96 102.41C135.63 99.2304 137.55 96.1504 139.61 96.1504C140.95 96.1504 140.95 97.4604 140.95 97.7104C140.95 101.44 136.89 102.19 134.96 102.42V102.41Z" fill="white"/>
<path fill-rule="evenodd" clip-rule="evenodd" d="M319.73 90.8004C318.73 90.8004 317.95 91.9704 317.95 92.9204C317.95 93.4804 318.2 94.3404 319.12 94.3404C320.1 94.3404 320.87 93.2304 320.87 92.2204C320.87 91.9704 320.87 90.8004 319.73 90.8004Z" fill="white"/>
<path fill-rule="evenodd" clip-rule="evenodd" d="M319.26 104.16C319.12 104.16 319.01 104.33 318.96 104.41C318.71 104.8 317.04 106.78 316.37 106.78C316.21 106.78 316.12 106.61 316.12 106.44C316.12 104.99 319.35 98.1404 319.35 96.6404C319.35 96.2204 319.29 95.5304 318.46 95.5304C315.95 95.5304 313.09 98.7304 313.09 99.2604C313.09 99.4204 313.23 99.5604 313.37 99.5604C313.42 99.5604 315.71 97.2504 316.29 97.2504C316.51 97.2504 316.51 97.4704 316.51 97.5304C316.51 97.8404 316.32 98.2304 316.06 98.8104C315.14 100.93 313.19 105.58 313.19 107.33C313.19 108.17 313.47 108.64 314.39 108.64C316.45 108.64 319.57 105.16 319.57 104.46C319.57 104.29 319.4 104.15 319.26 104.15V104.16Z" fill="white"/>
<path fill-rule="evenodd" clip-rule="evenodd" d="M292.39 95.5604C289.94 95.5604 287.41 98.3404 284.74 102.02L286.69 95.8904C287.11 94.5804 288.44 90.4904 288.44 90.3804C288.44 90.2704 288.41 90.1304 288.16 90.1304C288.02 90.1304 287.74 90.2704 287.46 90.4104C287.04 90.6304 285.62 91.0004 284.59 90.9704L283.95 90.9404C283.7 90.9404 283.11 90.9404 283.11 91.4404C283.11 91.6104 283.19 91.7504 283.58 91.7504C284.44 91.7504 284.81 91.7504 284.81 92.3904C284.81 93.9204 280.13 107.17 280.13 107.81C280.13 108.28 280.43 108.28 281.33 108.28C282.53 108.28 282.58 108.23 282.92 107.3C284.51 102.93 288.99 97.1104 290.94 97.1104C291.36 97.1104 292.08 97.1704 292.08 98.5604C292.08 100.84 289.94 107.78 288.4 107.78C287.43 107.78 287.68 106.3 286.37 106.3C285.84 106.3 285.09 106.83 285.09 107.47C285.09 108.17 285.79 108.61 286.68 108.61C291.08 108.61 294.95 103.93 295.01 99.1404C295.04 96.1004 293.31 95.5504 292.39 95.5504V95.5604Z" fill="white"/>
<path fill-rule="evenodd" clip-rule="evenodd" d="M278.47 95.3104C278.22 95.3104 277.1 95.4504 277.1 97.0104C277.1 97.4604 277.21 97.8204 277.49 98.3204C277.74 98.7904 277.91 99.1004 277.91 99.8004C277.91 102.31 274.4 107.23 271.92 107.23C270.75 107.23 270.75 106.2 270.75 105.92C270.75 104.28 273.73 96.0104 273.73 95.9504C273.73 95.8904 273.73 95.7504 273.59 95.7004C273.39 95.6204 272.62 95.6204 272.36 95.6204C271.13 95.6204 271.05 95.8104 270.94 96.1804C269.1 101.58 268.18 103.06 267.35 104.31C266.43 105.7 264.98 107.12 263.68 107.12C263.04 107.12 262.65 106.82 262.65 106.15C262.65 104.7 265.82 98.2104 265.82 96.6304C265.82 95.5204 264.65 95.5204 264.48 95.5204C261.97 95.5204 259.08 98.7504 259.08 99.4404C259.08 99.6104 259.16 99.7204 259.33 99.7204C259.55 99.7204 259.75 99.5004 259.8 99.4404C260.16 98.9904 261.89 96.9604 262.67 96.9604C262.81 96.9604 263.01 97.0504 263.01 97.3504C263.01 97.8004 262.59 98.8804 261.81 100.75C261.08 102.5 260.05 104.93 260.05 106.15C260.05 107.54 260.97 108.66 262.56 108.66C265.54 108.66 268.05 104.59 268.91 103.12H268.97C268.36 105.07 268.13 105.9 268.13 106.6C268.13 107.6 268.8 108.63 270.33 108.63C275.12 108.63 279.68 100.78 279.68 97.2404C279.68 95.6004 278.82 95.3204 278.46 95.3204L278.47 95.3104Z" fill="white"/>
<path fill-rule="evenodd" clip-rule="evenodd" d="M240.7 103.97C240.56 103.97 240.42 104.11 240.34 104.28C239.5 105.59 238.09 106.73 237.64 106.73C237.47 106.73 237.3 106.59 237.3 106.23C237.3 105.81 237.69 104.5 237.86 104C239.14 99.8204 239.17 99.7104 240.11 96.7904H242.76C243.04 96.7904 243.51 96.6804 243.51 96.1504C243.51 96.0904 243.51 95.8704 243.29 95.8704H240.39C240.44 95.7604 240.5 95.5404 240.53 95.4504L240.89 94.4504C241 94.1504 241.39 93.0004 241.39 92.7804C241.39 92.4504 241.14 92.4504 240.78 92.4504C240.39 92.4504 239.27 92.4804 238.97 92.5904C238.63 92.7304 237.94 95.3704 237.72 95.8704H236.38C235.63 95.8704 235.1 95.8704 235.1 96.5704C235.1 96.7904 235.41 96.7904 235.69 96.7904H237.45C236.53 99.4604 235.39 102.83 234.92 104.75C234.78 105.28 234.56 106.17 234.56 107.01C234.56 108.18 235.11 108.62 235.7 108.62C237.98 108.62 241.02 105.11 241.02 104.28C241.02 104.14 240.88 103.97 240.71 103.97H240.7Z" fill="white"/>
<path fill-rule="evenodd" clip-rule="evenodd" d="M133.7 92.7204C133.7 93.0004 133.42 94.2504 133.42 94.5004C133.42 94.6104 133.42 94.9204 133.84 94.9204C134.04 94.9204 134.23 94.8904 134.37 94.3104C134.54 93.6104 135.79 90.3304 135.79 90.0804C135.79 89.9204 135.68 89.8004 135.46 89.8004C135.35 89.8004 135.15 89.8304 134.93 90.2204C134.51 90.9704 134.21 90.9704 131.53 90.9704H123.43C122.51 90.9704 122.4 90.9704 122.4 90.5504C122.4 90.4604 122.46 90.0704 122.46 90.0204C122.46 89.6904 122.24 89.6604 122.1 89.6604C121.71 89.6604 121.6 89.9404 121.43 90.3604C121.26 90.8904 119.84 94.3704 119.84 94.6204C119.84 94.8404 120.12 94.9004 120.26 94.9004C120.43 94.9004 120.59 94.8404 120.82 94.4204C122.18 92.0804 123.05 91.8904 125.03 91.8904C126.17 91.8904 126.28 91.8904 126.28 92.1404C126.28 92.2804 126.28 92.3104 126.2 92.6404L122.25 105.92C121.83 107.31 121.47 107.43 120.77 107.51C119.6 107.62 119.21 107.68 119.21 108.1C119.21 108.32 119.38 108.43 119.6 108.43C120.02 108.43 121.13 108.21 123.08 108.21C125.03 108.21 126.59 108.43 126.95 108.43C127.09 108.43 127.48 108.43 127.48 108.04C127.48 107.68 127.2 107.62 126.53 107.59C125.64 107.56 125.14 107.43 125.14 106.92C125.14 106.7 125.31 106.14 125.53 105.42L129.21 93.0004C129.51 92.0004 129.51 91.8804 130.05 91.8804C133.42 91.8804 133.72 91.8804 133.72 92.7204H133.7Z" fill="white"/>
</g>
<defs>
<clipPath id="clip0_843_6361">
<rect width="322.4" height="121.6" fill="white"/>
</clipPath>
</defs>
</svg>
